<mxfile host="app.diagrams.net" modified="2022-08-17T02:21:38.191Z" agent="5.0 (Windows NT 10.0; Win64; x64) AppleWebKit/537.36 (KHTML, like Gecko) Chrome/104.0.5112.81 Safari/537.36 Edg/104.0.1293.54" etag="HXegnIO85BypgKCHJK0x" version="20.2.4" type="github">
  <diagram id="yPxyJZ8AM_hMuL3Unpa9" name="complex gitflow">
    <mxGraphModel dx="1038" dy="1421" grid="1" gridSize="10" guides="1" tooltips="1" connect="1" arrows="1" fold="1" page="1" pageScale="1" pageWidth="1100" pageHeight="850" math="0" shadow="0">
      <root>
        <mxCell id="0" />
        <mxCell id="1" parent="0" />
        <mxCell id="GeNn5KQTI6vVDBgjTlha-178" value="" style="rounded=0;whiteSpace=wrap;html=1;" vertex="1" parent="1">
          <mxGeometry x="304.13" y="-170" width="575.87" height="460" as="geometry" />
        </mxCell>
        <mxCell id="GeNn5KQTI6vVDBgjTlha-22" value="" style="rounded=0;whiteSpace=wrap;html=1;" vertex="1" parent="1">
          <mxGeometry x="304.13" y="-655" width="575.87" height="410" as="geometry" />
        </mxCell>
        <mxCell id="uWUnNED6HEl2aK5fdaIb-7" value="Hotfix Commit" style="text;html=1;strokeColor=none;fillColor=none;align=center;verticalAlign=middle;whiteSpace=wrap;overflow=hidden;" parent="1" vertex="1">
          <mxGeometry x="415" y="646" width="80" height="30" as="geometry" />
        </mxCell>
        <mxCell id="uWUnNED6HEl2aK5fdaIb-8" value="" style="edgeStyle=orthogonalEdgeStyle;rounded=0;html=1;jettySize=auto;orthogonalLoop=1;plain-blue;endArrow=none;endFill=0;strokeWidth=4;strokeColor=#000000;entryX=0;entryY=0.5;entryDx=0;entryDy=0;entryPerimeter=0;" parent="1" source="uWUnNED6HEl2aK5fdaIb-10" target="9hBKPDzoitwpIBdzFDQ7-16" edge="1">
          <mxGeometry x="280" y="631" as="geometry">
            <mxPoint x="430" y="631" as="targetPoint" />
          </mxGeometry>
        </mxCell>
        <mxCell id="uWUnNED6HEl2aK5fdaIb-9" style="edgeStyle=orthogonalEdgeStyle;curved=1;rounded=0;html=1;exitX=1;exitY=0.5;exitPerimeter=0;entryX=0;entryY=0.5;entryPerimeter=0;endArrow=none;endFill=0;jettySize=auto;orthogonalLoop=1;strokeWidth=4;fontSize=15;" parent="1" source="uWUnNED6HEl2aK5fdaIb-10" target="uWUnNED6HEl2aK5fdaIb-15" edge="1">
          <mxGeometry relative="1" as="geometry" />
        </mxCell>
        <mxCell id="uWUnNED6HEl2aK5fdaIb-10" value="" style="verticalLabelPosition=bottom;verticalAlign=top;html=1;strokeWidth=4;shape=mxgraph.flowchart.on-page_reference;plain-blue;gradientColor=none;fillColor=#B5E3Fe;strokeColor=#000000;" parent="1" vertex="1">
          <mxGeometry x="250" y="616" width="30" height="30" as="geometry" />
        </mxCell>
        <mxCell id="uWUnNED6HEl2aK5fdaIb-80" value="" style="edgeStyle=orthogonalEdgeStyle;curved=1;rounded=0;orthogonalLoop=1;jettySize=auto;html=1;endArrow=none;endFill=0;strokeWidth=4;entryX=0;entryY=0.5;entryDx=0;entryDy=0;entryPerimeter=0;" parent="1" source="uWUnNED6HEl2aK5fdaIb-11" target="uWUnNED6HEl2aK5fdaIb-109" edge="1">
          <mxGeometry relative="1" as="geometry">
            <mxPoint x="722.2499999999995" y="631" as="targetPoint" />
          </mxGeometry>
        </mxCell>
        <mxCell id="uWUnNED6HEl2aK5fdaIb-105" style="edgeStyle=orthogonalEdgeStyle;curved=1;rounded=0;orthogonalLoop=1;jettySize=auto;html=1;exitX=1;exitY=0.5;exitDx=0;exitDy=0;exitPerimeter=0;entryX=0;entryY=0.5;entryDx=0;entryDy=0;entryPerimeter=0;endArrow=none;endFill=0;strokeWidth=4;fontFamily=Courier New;fontColor=#009900;" parent="1" source="uWUnNED6HEl2aK5fdaIb-11" target="uWUnNED6HEl2aK5fdaIb-104" edge="1">
          <mxGeometry relative="1" as="geometry" />
        </mxCell>
        <mxCell id="uWUnNED6HEl2aK5fdaIb-11" value="" style="verticalLabelPosition=bottom;verticalAlign=top;html=1;strokeWidth=4;shape=mxgraph.flowchart.on-page_reference;plain-blue;gradientColor=none;strokeColor=#000000;fillColor=#B5E3FE;" parent="1" vertex="1">
          <mxGeometry x="610" y="616" width="30" height="30" as="geometry" />
        </mxCell>
        <mxCell id="uWUnNED6HEl2aK5fdaIb-109" value="" style="verticalLabelPosition=bottom;verticalAlign=top;html=1;strokeWidth=4;shape=mxgraph.flowchart.on-page_reference;plain-blue;gradientColor=none;strokeColor=#33001A;fillColor=#B5E3FE;" parent="1" vertex="1">
          <mxGeometry x="849" y="616" width="30" height="30" as="geometry" />
        </mxCell>
        <mxCell id="uWUnNED6HEl2aK5fdaIb-12" value="" style="edgeStyle=orthogonalEdgeStyle;rounded=0;html=1;jettySize=auto;orthogonalLoop=1;strokeWidth=4;endArrow=none;endFill=0;" parent="1" target="uWUnNED6HEl2aK5fdaIb-10" edge="1">
          <mxGeometry x="180" y="631" as="geometry">
            <mxPoint x="137.75" y="631" as="sourcePoint" />
          </mxGeometry>
        </mxCell>
        <mxCell id="uWUnNED6HEl2aK5fdaIb-13" value="main" style="text;html=1;strokeColor=none;fillColor=none;align=center;verticalAlign=middle;whiteSpace=wrap;overflow=hidden;fontSize=14;fontStyle=1;fontFamily=Courier New;" parent="1" vertex="1">
          <mxGeometry x="70.75" y="610" width="50" height="42" as="geometry" />
        </mxCell>
        <mxCell id="uWUnNED6HEl2aK5fdaIb-14" style="edgeStyle=orthogonalEdgeStyle;curved=1;rounded=0;html=1;exitX=1;exitY=0.5;exitPerimeter=0;endArrow=none;endFill=0;jettySize=auto;orthogonalLoop=1;strokeWidth=4;fontSize=15;" parent="1" source="uWUnNED6HEl2aK5fdaIb-15" target="uWUnNED6HEl2aK5fdaIb-17" edge="1">
          <mxGeometry relative="1" as="geometry" />
        </mxCell>
        <mxCell id="uWUnNED6HEl2aK5fdaIb-15" value="" style="verticalLabelPosition=bottom;verticalAlign=top;html=1;strokeWidth=4;shape=mxgraph.flowchart.on-page_reference;plain-purple;gradientColor=none;strokeColor=#000000;fillColor=#D5E8D4;" parent="1" vertex="1">
          <mxGeometry x="327.5" y="701" width="30" height="30" as="geometry" />
        </mxCell>
        <mxCell id="uWUnNED6HEl2aK5fdaIb-16" style="edgeStyle=orthogonalEdgeStyle;curved=1;rounded=0;html=1;exitX=1;exitY=0.5;exitPerimeter=0;entryX=0;entryY=0.5;entryPerimeter=0;endArrow=none;endFill=0;jettySize=auto;orthogonalLoop=1;strokeWidth=4;fontSize=15;" parent="1" source="uWUnNED6HEl2aK5fdaIb-17" target="uWUnNED6HEl2aK5fdaIb-19" edge="1">
          <mxGeometry relative="1" as="geometry" />
        </mxCell>
        <mxCell id="uWUnNED6HEl2aK5fdaIb-17" value="" style="verticalLabelPosition=bottom;verticalAlign=top;html=1;strokeWidth=4;shape=mxgraph.flowchart.on-page_reference;plain-purple;gradientColor=none;strokeColor=#000000;fillColor=#D5E8D4;" parent="1" vertex="1">
          <mxGeometry x="434.5" y="701" width="30" height="30" as="geometry" />
        </mxCell>
        <mxCell id="uWUnNED6HEl2aK5fdaIb-18" style="edgeStyle=orthogonalEdgeStyle;curved=1;rounded=0;html=1;exitX=1;exitY=0.5;exitPerimeter=0;entryX=0;entryY=0.5;entryPerimeter=0;endArrow=none;endFill=0;jettySize=auto;orthogonalLoop=1;strokeWidth=4;fontSize=15;" parent="1" source="uWUnNED6HEl2aK5fdaIb-19" target="uWUnNED6HEl2aK5fdaIb-11" edge="1">
          <mxGeometry relative="1" as="geometry" />
        </mxCell>
        <mxCell id="uWUnNED6HEl2aK5fdaIb-19" value="" style="verticalLabelPosition=bottom;verticalAlign=top;html=1;strokeWidth=4;shape=mxgraph.flowchart.on-page_reference;plain-purple;gradientColor=none;strokeColor=#000000;fillColor=#D5E8D4;" parent="1" vertex="1">
          <mxGeometry x="537.5" y="701" width="30" height="30" as="geometry" />
        </mxCell>
        <mxCell id="uWUnNED6HEl2aK5fdaIb-20" value="1.1.0-release" style="text;html=1;strokeColor=none;fillColor=none;align=left;verticalAlign=middle;whiteSpace=wrap;overflow=hidden;fontSize=14;fontStyle=1;fontFamily=Courier New;" parent="1" vertex="1">
          <mxGeometry x="76.5" y="706" width="240" height="20" as="geometry" />
        </mxCell>
        <mxCell id="uWUnNED6HEl2aK5fdaIb-71" value="" style="edgeStyle=orthogonalEdgeStyle;rounded=0;orthogonalLoop=1;jettySize=auto;html=1;endArrow=none;endFill=0;strokeWidth=4;" parent="1" source="uWUnNED6HEl2aK5fdaIb-69" target="uWUnNED6HEl2aK5fdaIb-70" edge="1">
          <mxGeometry relative="1" as="geometry" />
        </mxCell>
        <mxCell id="uWUnNED6HEl2aK5fdaIb-75" style="edgeStyle=orthogonalEdgeStyle;rounded=0;orthogonalLoop=1;jettySize=auto;html=1;entryX=1;entryY=0.5;entryDx=0;entryDy=0;entryPerimeter=0;endArrow=none;endFill=0;strokeWidth=4;curved=1;" parent="1" source="uWUnNED6HEl2aK5fdaIb-69" target="uWUnNED6HEl2aK5fdaIb-15" edge="1">
          <mxGeometry relative="1" as="geometry" />
        </mxCell>
        <mxCell id="uWUnNED6HEl2aK5fdaIb-94" style="edgeStyle=orthogonalEdgeStyle;curved=1;rounded=0;orthogonalLoop=1;jettySize=auto;html=1;exitX=1;exitY=0.5;exitDx=0;exitDy=0;exitPerimeter=0;entryX=0;entryY=0.5;entryDx=0;entryDy=0;entryPerimeter=0;endArrow=none;endFill=0;strokeWidth=4;fontFamily=Courier New;fontColor=#009900;" parent="1" source="uWUnNED6HEl2aK5fdaIb-69" target="uWUnNED6HEl2aK5fdaIb-82" edge="1">
          <mxGeometry relative="1" as="geometry" />
        </mxCell>
        <mxCell id="uWUnNED6HEl2aK5fdaIb-69" value="" style="verticalLabelPosition=bottom;verticalAlign=top;html=1;strokeWidth=4;shape=mxgraph.flowchart.on-page_reference;plain-purple;gradientColor=none;strokeColor=#000000;fillColor=#D5E8D4;" parent="1" vertex="1">
          <mxGeometry x="404.5" y="781" width="30" height="30" as="geometry" />
        </mxCell>
        <mxCell id="uWUnNED6HEl2aK5fdaIb-78" value="" style="edgeStyle=orthogonalEdgeStyle;curved=1;rounded=0;orthogonalLoop=1;jettySize=auto;html=1;endArrow=none;endFill=0;strokeWidth=4;" parent="1" source="uWUnNED6HEl2aK5fdaIb-70" target="uWUnNED6HEl2aK5fdaIb-77" edge="1">
          <mxGeometry relative="1" as="geometry" />
        </mxCell>
        <mxCell id="uWUnNED6HEl2aK5fdaIb-70" value="" style="verticalLabelPosition=bottom;verticalAlign=top;html=1;strokeWidth=4;shape=mxgraph.flowchart.on-page_reference;plain-purple;gradientColor=none;strokeColor=#000000;fillColor=#D5E8D4;" parent="1" vertex="1">
          <mxGeometry x="502.5" y="781" width="30" height="30" as="geometry" />
        </mxCell>
        <mxCell id="uWUnNED6HEl2aK5fdaIb-96" value="" style="edgeStyle=orthogonalEdgeStyle;curved=1;rounded=0;orthogonalLoop=1;jettySize=auto;html=1;endArrow=none;endFill=0;strokeWidth=4;fontFamily=Courier New;fontColor=#009900;" parent="1" source="uWUnNED6HEl2aK5fdaIb-77" target="uWUnNED6HEl2aK5fdaIb-95" edge="1">
          <mxGeometry relative="1" as="geometry" />
        </mxCell>
        <mxCell id="uWUnNED6HEl2aK5fdaIb-77" value="" style="verticalLabelPosition=bottom;verticalAlign=top;html=1;strokeWidth=4;shape=mxgraph.flowchart.on-page_reference;plain-purple;gradientColor=none;strokeColor=#000000;fillColor=#D5E8D4;" parent="1" vertex="1">
          <mxGeometry x="582.5" y="781" width="30" height="30" as="geometry" />
        </mxCell>
        <mxCell id="uWUnNED6HEl2aK5fdaIb-108" style="edgeStyle=orthogonalEdgeStyle;curved=1;rounded=0;orthogonalLoop=1;jettySize=auto;html=1;entryX=0;entryY=0.5;entryDx=0;entryDy=0;entryPerimeter=0;endArrow=none;endFill=0;strokeWidth=4;fontFamily=Courier New;fontColor=#009900;" parent="1" source="uWUnNED6HEl2aK5fdaIb-95" target="uWUnNED6HEl2aK5fdaIb-106" edge="1">
          <mxGeometry relative="1" as="geometry" />
        </mxCell>
        <mxCell id="uWUnNED6HEl2aK5fdaIb-95" value="" style="verticalLabelPosition=bottom;verticalAlign=top;html=1;strokeWidth=4;shape=mxgraph.flowchart.on-page_reference;plain-purple;gradientColor=none;strokeColor=#000000;fillColor=#D5E8D4;" parent="1" vertex="1">
          <mxGeometry x="684.5" y="781" width="30" height="30" as="geometry" />
        </mxCell>
        <mxCell id="uWUnNED6HEl2aK5fdaIb-76" value="develop" style="text;html=1;strokeColor=none;fillColor=none;align=left;verticalAlign=middle;whiteSpace=wrap;overflow=hidden;fontSize=14;fontStyle=1;fontFamily=Courier New;" parent="1" vertex="1">
          <mxGeometry x="75.5" y="784" width="91" height="20" as="geometry" />
        </mxCell>
        <mxCell id="uWUnNED6HEl2aK5fdaIb-81" value="" style="edgeStyle=orthogonalEdgeStyle;rounded=0;orthogonalLoop=1;jettySize=auto;html=1;endArrow=none;endFill=0;strokeWidth=4;" parent="1" source="uWUnNED6HEl2aK5fdaIb-82" target="uWUnNED6HEl2aK5fdaIb-84" edge="1">
          <mxGeometry relative="1" as="geometry" />
        </mxCell>
        <mxCell id="uWUnNED6HEl2aK5fdaIb-82" value="" style="verticalLabelPosition=bottom;verticalAlign=top;html=1;strokeWidth=4;shape=mxgraph.flowchart.on-page_reference;plain-purple;gradientColor=none;strokeColor=#000000;fillColor=#D5E8D4;" parent="1" vertex="1">
          <mxGeometry x="488.5" y="860" width="30" height="30" as="geometry" />
        </mxCell>
        <mxCell id="uWUnNED6HEl2aK5fdaIb-97" style="edgeStyle=orthogonalEdgeStyle;curved=1;rounded=0;orthogonalLoop=1;jettySize=auto;html=1;exitX=1;exitY=0.5;exitDx=0;exitDy=0;exitPerimeter=0;entryX=0;entryY=0.5;entryDx=0;entryDy=0;entryPerimeter=0;endArrow=none;endFill=0;strokeWidth=4;fontFamily=Courier New;fontColor=#009900;" parent="1" source="uWUnNED6HEl2aK5fdaIb-84" target="uWUnNED6HEl2aK5fdaIb-95" edge="1">
          <mxGeometry relative="1" as="geometry" />
        </mxCell>
        <mxCell id="uWUnNED6HEl2aK5fdaIb-84" value="" style="verticalLabelPosition=bottom;verticalAlign=top;html=1;strokeWidth=4;shape=mxgraph.flowchart.on-page_reference;plain-purple;gradientColor=none;strokeColor=#000000;fillColor=#D5E8D4;" parent="1" vertex="1">
          <mxGeometry x="599.5" y="860" width="30" height="30" as="geometry" />
        </mxCell>
        <mxCell id="uWUnNED6HEl2aK5fdaIb-86" value="JIRA-35--example feature" style="text;html=1;strokeColor=none;fillColor=none;align=left;verticalAlign=middle;whiteSpace=wrap;overflow=hidden;fontSize=14;fontStyle=1;fontFamily=Courier New;" parent="1" vertex="1">
          <mxGeometry x="75.25" y="865" width="240" height="20" as="geometry" />
        </mxCell>
        <mxCell id="uWUnNED6HEl2aK5fdaIb-87" value="The development or sprint branch" style="text;html=1;strokeColor=none;fillColor=none;align=left;verticalAlign=middle;whiteSpace=wrap;overflow=hidden;fontSize=14;fontStyle=0;fontColor=#009900;" parent="1" vertex="1">
          <mxGeometry x="73.5" y="804" width="240" height="20" as="geometry" />
        </mxCell>
        <mxCell id="uWUnNED6HEl2aK5fdaIb-88" value="Your feature branch" style="text;html=1;strokeColor=none;fillColor=none;align=left;verticalAlign=middle;whiteSpace=wrap;overflow=hidden;fontSize=14;fontStyle=0;fontColor=#009900;" parent="1" vertex="1">
          <mxGeometry x="73.5" y="885" width="240" height="20" as="geometry" />
        </mxCell>
        <mxCell id="uWUnNED6HEl2aK5fdaIb-89" value="The release branch" style="text;html=1;strokeColor=none;fillColor=none;align=left;verticalAlign=middle;whiteSpace=wrap;overflow=hidden;fontSize=14;fontStyle=0;fontColor=#009900;" parent="1" vertex="1">
          <mxGeometry x="74.5" y="726" width="240" height="20" as="geometry" />
        </mxCell>
        <mxCell id="uWUnNED6HEl2aK5fdaIb-90" value="The main branch&lt;br&gt;" style="text;html=1;strokeColor=none;fillColor=none;align=left;verticalAlign=middle;whiteSpace=wrap;overflow=hidden;fontSize=14;fontStyle=0;fontColor=#009900;" parent="1" vertex="1">
          <mxGeometry x="76" y="640" width="146.75" height="20" as="geometry" />
        </mxCell>
        <mxCell id="uWUnNED6HEl2aK5fdaIb-91" value="" style="endArrow=classic;html=1;strokeWidth=1;fontFamily=Courier New;fontColor=#009900;" parent="1" edge="1">
          <mxGeometry width="50" height="50" relative="1" as="geometry">
            <mxPoint x="294.5" y="874.5" as="sourcePoint" />
            <mxPoint x="444.5" y="875" as="targetPoint" />
          </mxGeometry>
        </mxCell>
        <mxCell id="uWUnNED6HEl2aK5fdaIb-92" value="" style="endArrow=classic;html=1;strokeWidth=1;fontFamily=Courier New;fontColor=#009900;" parent="1" edge="1">
          <mxGeometry width="50" height="50" relative="1" as="geometry">
            <mxPoint x="174.5" y="794" as="sourcePoint" />
            <mxPoint x="364.5" y="794" as="targetPoint" />
          </mxGeometry>
        </mxCell>
        <mxCell id="uWUnNED6HEl2aK5fdaIb-93" value="" style="endArrow=classic;html=1;strokeWidth=1;fontFamily=Courier New;fontColor=#009900;" parent="1" edge="1">
          <mxGeometry width="50" height="50" relative="1" as="geometry">
            <mxPoint x="204.5" y="716" as="sourcePoint" />
            <mxPoint x="284.5" y="716" as="targetPoint" />
          </mxGeometry>
        </mxCell>
        <mxCell id="uWUnNED6HEl2aK5fdaIb-101" value="Tag: 1.1.0" style="text;html=1;strokeColor=none;fillColor=none;align=center;verticalAlign=middle;whiteSpace=wrap;overflow=hidden;fontSize=14;" parent="1" vertex="1">
          <mxGeometry x="578" y="590" width="110" height="20" as="geometry" />
        </mxCell>
        <mxCell id="uWUnNED6HEl2aK5fdaIb-103" value="Tag: 1.0.0" style="text;html=1;strokeColor=none;fillColor=none;align=center;verticalAlign=middle;whiteSpace=wrap;overflow=hidden;fontSize=14;" parent="1" vertex="1">
          <mxGeometry x="230" y="590" width="70" height="20" as="geometry" />
        </mxCell>
        <mxCell id="uWUnNED6HEl2aK5fdaIb-107" value="" style="edgeStyle=orthogonalEdgeStyle;curved=1;rounded=0;orthogonalLoop=1;jettySize=auto;html=1;endArrow=none;endFill=0;strokeWidth=4;fontFamily=Courier New;fontColor=#009900;" parent="1" source="uWUnNED6HEl2aK5fdaIb-104" target="uWUnNED6HEl2aK5fdaIb-106" edge="1">
          <mxGeometry relative="1" as="geometry" />
        </mxCell>
        <mxCell id="uWUnNED6HEl2aK5fdaIb-104" value="" style="verticalLabelPosition=bottom;verticalAlign=top;html=1;strokeWidth=4;shape=mxgraph.flowchart.on-page_reference;plain-purple;gradientColor=none;strokeColor=#000000;fillColor=#D5E8D4;" parent="1" vertex="1">
          <mxGeometry x="684.5" y="701" width="30" height="30" as="geometry" />
        </mxCell>
        <mxCell id="uWUnNED6HEl2aK5fdaIb-115" style="edgeStyle=orthogonalEdgeStyle;curved=1;rounded=0;orthogonalLoop=1;jettySize=auto;html=1;entryX=0;entryY=0.5;entryDx=0;entryDy=0;entryPerimeter=0;endArrow=none;endFill=0;strokeWidth=4;fontFamily=Courier New;fontColor=#009900;" parent="1" source="uWUnNED6HEl2aK5fdaIb-106" target="uWUnNED6HEl2aK5fdaIb-109" edge="1">
          <mxGeometry relative="1" as="geometry" />
        </mxCell>
        <mxCell id="uWUnNED6HEl2aK5fdaIb-106" value="" style="verticalLabelPosition=bottom;verticalAlign=top;html=1;strokeWidth=4;shape=mxgraph.flowchart.on-page_reference;plain-purple;gradientColor=none;strokeColor=#000000;fillColor=#D5E8D4;" parent="1" vertex="1">
          <mxGeometry x="774.5" y="701" width="30" height="30" as="geometry" />
        </mxCell>
        <mxCell id="uWUnNED6HEl2aK5fdaIb-116" value="Tag: 1.2.0" style="text;html=1;strokeColor=none;fillColor=none;align=center;verticalAlign=middle;whiteSpace=wrap;overflow=hidden;fontSize=14;" parent="1" vertex="1">
          <mxGeometry x="800" y="588" width="110" height="20" as="geometry" />
        </mxCell>
        <mxCell id="uWUnNED6HEl2aK5fdaIb-117" value="" style="endArrow=classic;html=1;strokeWidth=1;fontFamily=Courier New;fontColor=#009900;exitX=0.5;exitY=0;exitDx=0;exitDy=0;" parent="1" source="fSnZ5vnYTslC5NarKmr_-5" edge="1">
          <mxGeometry width="50" height="50" relative="1" as="geometry">
            <mxPoint x="699" y="1055.5" as="sourcePoint" />
            <mxPoint x="699" y="824" as="targetPoint" />
          </mxGeometry>
        </mxCell>
        <mxCell id="fSnZ5vnYTslC5NarKmr_-1" value="" style="endArrow=classic;html=1;strokeWidth=1;fontFamily=Courier New;fontColor=#009900;" parent="1" edge="1">
          <mxGeometry width="50" height="50" relative="1" as="geometry">
            <mxPoint x="789.5" y="795" as="sourcePoint" />
            <mxPoint x="789.5" y="745" as="targetPoint" />
          </mxGeometry>
        </mxCell>
        <mxCell id="fSnZ5vnYTslC5NarKmr_-4" value="&lt;span style=&quot;text-align: center&quot;&gt;Feel free to add notes here about the process of merging into the release branch.&lt;br&gt;&lt;/span&gt;" style="text;html=1;strokeColor=none;fillColor=none;align=left;verticalAlign=middle;whiteSpace=wrap;overflow=hidden;fontSize=12;fontStyle=0;fontColor=#000000;" parent="1" vertex="1">
          <mxGeometry x="764.5" y="795" width="163.25" height="66" as="geometry" />
        </mxCell>
        <mxCell id="fSnZ5vnYTslC5NarKmr_-5" value="&lt;div style=&quot;&quot;&gt;&lt;span&gt;Feel free to add notes here about the process of merging feature branches.&lt;/span&gt;&lt;/div&gt;" style="text;html=1;strokeColor=none;fillColor=none;align=left;verticalAlign=middle;whiteSpace=wrap;overflow=hidden;fontSize=12;fontStyle=0;fontColor=#000000;" parent="1" vertex="1">
          <mxGeometry x="490.38" y="905" width="418.25" height="36" as="geometry" />
        </mxCell>
        <mxCell id="fSnZ5vnYTslC5NarKmr_-9" value="" style="edgeStyle=orthogonalEdgeStyle;rounded=0;orthogonalLoop=1;jettySize=auto;html=1;fontSize=12;fontColor=#000000;entryX=0;entryY=0.5;entryDx=0;entryDy=0;" parent="1" source="fSnZ5vnYTslC5NarKmr_-8" target="uWUnNED6HEl2aK5fdaIb-103" edge="1">
          <mxGeometry relative="1" as="geometry">
            <mxPoint x="210" y="600" as="targetPoint" />
            <Array as="points">
              <mxPoint x="210" y="600" />
              <mxPoint x="210" y="600" />
            </Array>
          </mxGeometry>
        </mxCell>
        <mxCell id="fSnZ5vnYTslC5NarKmr_-8" value="&lt;span style=&quot;text-align: center; font-size: 11px;&quot;&gt;Each tag represents a production release.&lt;/span&gt;" style="text;html=1;strokeColor=none;fillColor=none;align=left;verticalAlign=middle;whiteSpace=wrap;overflow=hidden;fontSize=11;fontStyle=0;fontColor=#000000;" parent="1" vertex="1">
          <mxGeometry x="82.25" y="578" width="120" height="38" as="geometry" />
        </mxCell>
        <UserObject label="Example diagram for a workflow similar to &quot;Git-flow&quot; :" link="https://nvie.com/posts/a-successful-git-branching-model/" id="9hBKPDzoitwpIBdzFDQ7-2">
          <mxCell style="text;whiteSpace=wrap;html=1;fontStyle=1;fontSize=16;" parent="1" vertex="1">
            <mxGeometry x="70" y="510" width="427.75" height="20" as="geometry" />
          </mxCell>
        </UserObject>
        <UserObject label="&lt;a href=&quot;https://nvie.com/posts/a-successful-git-branching-model/&quot;&gt;https://nvie.com/posts/a-successful-git-branching-model/&lt;/a&gt;" link="https://nvie.com/posts/a-successful-git-branching-model/" id="9hBKPDzoitwpIBdzFDQ7-3">
          <mxCell style="text;whiteSpace=wrap;html=1;" parent="1" vertex="1">
            <mxGeometry x="102.75" y="535" width="355" height="20" as="geometry" />
          </mxCell>
        </UserObject>
        <UserObject label="See:" link="https://nvie.com/posts/a-successful-git-branching-model/" id="9hBKPDzoitwpIBdzFDQ7-7">
          <mxCell style="text;whiteSpace=wrap;html=1;" parent="1" vertex="1">
            <mxGeometry x="70" y="535" width="32.75" height="20" as="geometry" />
          </mxCell>
        </UserObject>
        <mxCell id="9hBKPDzoitwpIBdzFDQ7-14" value="" style="endArrow=classic;html=1;strokeWidth=1;fontFamily=Courier New;fontColor=#009900;" parent="1" edge="1">
          <mxGeometry width="50" height="50" relative="1" as="geometry">
            <mxPoint x="865" y="700" as="sourcePoint" />
            <mxPoint x="865" y="660" as="targetPoint" />
          </mxGeometry>
        </mxCell>
        <mxCell id="9hBKPDzoitwpIBdzFDQ7-15" value="&lt;span style=&quot;text-align: center&quot;&gt;Feel free to add notes here about the process of merging into the release branch.&lt;br&gt;&lt;br&gt;&lt;/span&gt;" style="text;html=1;strokeColor=none;fillColor=none;align=left;verticalAlign=middle;whiteSpace=wrap;overflow=hidden;fontSize=12;fontStyle=0;fontColor=#000000;" parent="1" vertex="1">
          <mxGeometry x="840" y="701" width="167.75" height="81" as="geometry" />
        </mxCell>
        <mxCell id="9hBKPDzoitwpIBdzFDQ7-21" value="" style="edgeStyle=orthogonalEdgeStyle;rounded=0;orthogonalLoop=1;jettySize=auto;html=1;fontSize=15;endArrow=none;endFill=0;strokeWidth=4;entryX=0;entryY=0.5;entryDx=0;entryDy=0;entryPerimeter=0;" parent="1" source="9hBKPDzoitwpIBdzFDQ7-16" target="uWUnNED6HEl2aK5fdaIb-11" edge="1">
          <mxGeometry relative="1" as="geometry">
            <mxPoint x="548" y="631" as="targetPoint" />
          </mxGeometry>
        </mxCell>
        <mxCell id="9hBKPDzoitwpIBdzFDQ7-16" value="" style="verticalLabelPosition=bottom;verticalAlign=top;html=1;strokeWidth=4;shape=mxgraph.flowchart.on-page_reference;plain-blue;gradientColor=#EA6B66;strokeColor=#B85450;fillColor=#F8CECC;" parent="1" vertex="1">
          <mxGeometry x="440" y="616" width="30" height="30" as="geometry" />
        </mxCell>
        <mxCell id="9hBKPDzoitwpIBdzFDQ7-61" value="Tag: 1.0.1" style="text;html=1;strokeColor=none;fillColor=none;align=center;verticalAlign=middle;whiteSpace=wrap;overflow=hidden;fontSize=14;" parent="1" vertex="1">
          <mxGeometry x="416.25" y="590" width="70" height="20" as="geometry" />
        </mxCell>
        <mxCell id="GeNn5KQTI6vVDBgjTlha-3" value="학생" style="shape=umlActor;verticalLabelPosition=bottom;verticalAlign=top;html=1;outlineConnect=0;" vertex="1" parent="1">
          <mxGeometry x="200" y="-550" width="30" height="60" as="geometry" />
        </mxCell>
        <mxCell id="GeNn5KQTI6vVDBgjTlha-5" value="빈 강의실을 찾는다" style="ellipse;whiteSpace=wrap;html=1;" vertex="1" parent="1">
          <mxGeometry x="325.87" y="-369" width="120" height="40" as="geometry" />
        </mxCell>
        <mxCell id="GeNn5KQTI6vVDBgjTlha-8" value="교수" style="shape=umlActor;verticalLabelPosition=bottom;verticalAlign=top;html=1;outlineConnect=0;" vertex="1" parent="1">
          <mxGeometry x="210" y="-100" width="30" height="60" as="geometry" />
        </mxCell>
        <mxCell id="GeNn5KQTI6vVDBgjTlha-9" value="관리자" style="shape=umlActor;verticalLabelPosition=bottom;verticalAlign=top;html=1;outlineConnect=0;" vertex="1" parent="1">
          <mxGeometry x="209.75" y="90" width="30" height="60" as="geometry" />
        </mxCell>
        <mxCell id="GeNn5KQTI6vVDBgjTlha-20" style="edgeStyle=orthogonalEdgeStyle;rounded=0;orthogonalLoop=1;jettySize=auto;html=1;exitX=0.5;exitY=1;exitDx=0;exitDy=0;" edge="1" parent="1" source="GeNn5KQTI6vVDBgjTlha-5" target="GeNn5KQTI6vVDBgjTlha-5">
          <mxGeometry relative="1" as="geometry" />
        </mxCell>
        <mxCell id="GeNn5KQTI6vVDBgjTlha-23" value="" style="endArrow=none;html=1;rounded=0;entryX=0;entryY=0.5;entryDx=0;entryDy=0;" edge="1" parent="1" target="GeNn5KQTI6vVDBgjTlha-5">
          <mxGeometry width="50" height="50" relative="1" as="geometry">
            <mxPoint x="242.12" y="-319" as="sourcePoint" />
            <mxPoint x="567.37" y="-304.5" as="targetPoint" />
          </mxGeometry>
        </mxCell>
        <mxCell id="GeNn5KQTI6vVDBgjTlha-24" value="ID/비밀번호 찾는다" style="ellipse;whiteSpace=wrap;html=1;" vertex="1" parent="1">
          <mxGeometry x="326.75" y="-470" width="120" height="40" as="geometry" />
        </mxCell>
        <mxCell id="GeNn5KQTI6vVDBgjTlha-25" style="edgeStyle=orthogonalEdgeStyle;rounded=0;orthogonalLoop=1;jettySize=auto;html=1;exitX=0.5;exitY=1;exitDx=0;exitDy=0;" edge="1" parent="1">
          <mxGeometry relative="1" as="geometry">
            <mxPoint x="391.5" y="-425" as="sourcePoint" />
            <mxPoint x="391.5" y="-425" as="targetPoint" />
          </mxGeometry>
        </mxCell>
        <mxCell id="GeNn5KQTI6vVDBgjTlha-26" value="" style="endArrow=none;html=1;rounded=0;entryX=0;entryY=0.5;entryDx=0;entryDy=0;" edge="1" target="GeNn5KQTI6vVDBgjTlha-24" parent="1">
          <mxGeometry width="50" height="50" relative="1" as="geometry">
            <mxPoint x="240" y="-520" as="sourcePoint" />
            <mxPoint x="568.25" y="-389.5" as="targetPoint" />
          </mxGeometry>
        </mxCell>
        <mxCell id="GeNn5KQTI6vVDBgjTlha-27" value="학생(비회원)" style="shape=umlActor;verticalLabelPosition=bottom;verticalAlign=top;html=1;outlineConnect=0;" vertex="1" parent="1">
          <mxGeometry x="202.12" y="-359" width="30" height="60" as="geometry" />
        </mxCell>
        <mxCell id="GeNn5KQTI6vVDBgjTlha-31" value="로그인 한다" style="ellipse;whiteSpace=wrap;html=1;" vertex="1" parent="1">
          <mxGeometry x="323.75" y="-541" width="120" height="40" as="geometry" />
        </mxCell>
        <mxCell id="GeNn5KQTI6vVDBgjTlha-32" style="edgeStyle=orthogonalEdgeStyle;rounded=0;orthogonalLoop=1;jettySize=auto;html=1;exitX=0.5;exitY=1;exitDx=0;exitDy=0;" edge="1" source="GeNn5KQTI6vVDBgjTlha-31" target="GeNn5KQTI6vVDBgjTlha-31" parent="1">
          <mxGeometry relative="1" as="geometry" />
        </mxCell>
        <mxCell id="GeNn5KQTI6vVDBgjTlha-33" value="" style="endArrow=none;html=1;rounded=0;entryX=0;entryY=0.5;entryDx=0;entryDy=0;" edge="1" target="GeNn5KQTI6vVDBgjTlha-31" parent="1">
          <mxGeometry width="50" height="50" relative="1" as="geometry">
            <mxPoint x="239.75" y="-521" as="sourcePoint" />
            <mxPoint x="565.25" y="-460.5" as="targetPoint" />
          </mxGeometry>
        </mxCell>
        <mxCell id="GeNn5KQTI6vVDBgjTlha-34" style="edgeStyle=orthogonalEdgeStyle;rounded=0;orthogonalLoop=1;jettySize=auto;html=1;exitX=0.5;exitY=1;exitDx=0;exitDy=0;" edge="1" parent="1">
          <mxGeometry relative="1" as="geometry">
            <mxPoint x="391.5" y="-570" as="sourcePoint" />
            <mxPoint x="391.5" y="-570" as="targetPoint" />
          </mxGeometry>
        </mxCell>
        <mxCell id="GeNn5KQTI6vVDBgjTlha-36" value="상담 예약을 한다" style="ellipse;whiteSpace=wrap;html=1;" vertex="1" parent="1">
          <mxGeometry x="540" y="-595" width="120" height="40" as="geometry" />
        </mxCell>
        <mxCell id="GeNn5KQTI6vVDBgjTlha-37" style="edgeStyle=orthogonalEdgeStyle;rounded=0;orthogonalLoop=1;jettySize=auto;html=1;exitX=0.5;exitY=1;exitDx=0;exitDy=0;" edge="1" source="GeNn5KQTI6vVDBgjTlha-36" target="GeNn5KQTI6vVDBgjTlha-36" parent="1">
          <mxGeometry relative="1" as="geometry" />
        </mxCell>
        <mxCell id="GeNn5KQTI6vVDBgjTlha-38" value="" style="endArrow=none;html=1;rounded=0;entryX=0;entryY=0.5;entryDx=0;entryDy=0;exitX=1;exitY=0.5;exitDx=0;exitDy=0;" edge="1" target="GeNn5KQTI6vVDBgjTlha-36" parent="1" source="GeNn5KQTI6vVDBgjTlha-31">
          <mxGeometry width="50" height="50" relative="1" as="geometry">
            <mxPoint x="452.25" y="-522" as="sourcePoint" />
            <mxPoint x="777.75" y="-461.5" as="targetPoint" />
          </mxGeometry>
        </mxCell>
        <mxCell id="GeNn5KQTI6vVDBgjTlha-39" style="edgeStyle=orthogonalEdgeStyle;rounded=0;orthogonalLoop=1;jettySize=auto;html=1;exitX=0.5;exitY=1;exitDx=0;exitDy=0;" edge="1" parent="1">
          <mxGeometry relative="1" as="geometry">
            <mxPoint x="604" y="-571" as="sourcePoint" />
            <mxPoint x="604" y="-571" as="targetPoint" />
          </mxGeometry>
        </mxCell>
        <mxCell id="GeNn5KQTI6vVDBgjTlha-40" value="빈 강의실을 찾는다" style="ellipse;whiteSpace=wrap;html=1;" vertex="1" parent="1">
          <mxGeometry x="540" y="-541" width="120" height="40" as="geometry" />
        </mxCell>
        <mxCell id="GeNn5KQTI6vVDBgjTlha-41" style="edgeStyle=orthogonalEdgeStyle;rounded=0;orthogonalLoop=1;jettySize=auto;html=1;exitX=0.5;exitY=1;exitDx=0;exitDy=0;" edge="1" source="GeNn5KQTI6vVDBgjTlha-40" target="GeNn5KQTI6vVDBgjTlha-40" parent="1">
          <mxGeometry relative="1" as="geometry" />
        </mxCell>
        <mxCell id="GeNn5KQTI6vVDBgjTlha-42" value="" style="endArrow=none;html=1;rounded=0;entryX=0;entryY=0.5;entryDx=0;entryDy=0;exitX=1;exitY=0.5;exitDx=0;exitDy=0;" edge="1" target="GeNn5KQTI6vVDBgjTlha-40" parent="1" source="GeNn5KQTI6vVDBgjTlha-31">
          <mxGeometry width="50" height="50" relative="1" as="geometry">
            <mxPoint x="452.25" y="-452" as="sourcePoint" />
            <mxPoint x="786.25" y="-392.5" as="targetPoint" />
          </mxGeometry>
        </mxCell>
        <mxCell id="GeNn5KQTI6vVDBgjTlha-43" style="edgeStyle=orthogonalEdgeStyle;rounded=0;orthogonalLoop=1;jettySize=auto;html=1;exitX=0.5;exitY=1;exitDx=0;exitDy=0;" edge="1" parent="1">
          <mxGeometry relative="1" as="geometry">
            <mxPoint x="612.5" y="-502" as="sourcePoint" />
            <mxPoint x="612.5" y="-502" as="targetPoint" />
          </mxGeometry>
        </mxCell>
        <mxCell id="GeNn5KQTI6vVDBgjTlha-44" value="공지사항을&lt;br&gt;&amp;nbsp;확인한다" style="ellipse;whiteSpace=wrap;html=1;" vertex="1" parent="1">
          <mxGeometry x="540" y="-490" width="120" height="40" as="geometry" />
        </mxCell>
        <mxCell id="GeNn5KQTI6vVDBgjTlha-45" style="edgeStyle=orthogonalEdgeStyle;rounded=0;orthogonalLoop=1;jettySize=auto;html=1;exitX=0.5;exitY=1;exitDx=0;exitDy=0;" edge="1" parent="1" source="GeNn5KQTI6vVDBgjTlha-44" target="GeNn5KQTI6vVDBgjTlha-44">
          <mxGeometry relative="1" as="geometry" />
        </mxCell>
        <mxCell id="GeNn5KQTI6vVDBgjTlha-46" value="" style="endArrow=none;html=1;rounded=0;entryX=0;entryY=0.5;entryDx=0;entryDy=0;exitX=1;exitY=0.5;exitDx=0;exitDy=0;" edge="1" parent="1" target="GeNn5KQTI6vVDBgjTlha-44" source="GeNn5KQTI6vVDBgjTlha-31">
          <mxGeometry width="50" height="50" relative="1" as="geometry">
            <mxPoint x="443.75" y="-391" as="sourcePoint" />
            <mxPoint x="777.75" y="-331.5" as="targetPoint" />
          </mxGeometry>
        </mxCell>
        <mxCell id="GeNn5KQTI6vVDBgjTlha-47" style="edgeStyle=orthogonalEdgeStyle;rounded=0;orthogonalLoop=1;jettySize=auto;html=1;exitX=0.5;exitY=1;exitDx=0;exitDy=0;" edge="1" parent="1">
          <mxGeometry relative="1" as="geometry">
            <mxPoint x="604" y="-441" as="sourcePoint" />
            <mxPoint x="604" y="-441" as="targetPoint" />
          </mxGeometry>
        </mxCell>
        <mxCell id="GeNn5KQTI6vVDBgjTlha-48" value="교수님 검색한다" style="ellipse;whiteSpace=wrap;html=1;" vertex="1" parent="1">
          <mxGeometry x="720" y="-639" width="120" height="40" as="geometry" />
        </mxCell>
        <mxCell id="GeNn5KQTI6vVDBgjTlha-49" style="edgeStyle=orthogonalEdgeStyle;rounded=0;orthogonalLoop=1;jettySize=auto;html=1;exitX=0.5;exitY=1;exitDx=0;exitDy=0;" edge="1" parent="1" source="GeNn5KQTI6vVDBgjTlha-48" target="GeNn5KQTI6vVDBgjTlha-48">
          <mxGeometry relative="1" as="geometry" />
        </mxCell>
        <mxCell id="GeNn5KQTI6vVDBgjTlha-51" style="edgeStyle=orthogonalEdgeStyle;rounded=0;orthogonalLoop=1;jettySize=auto;html=1;exitX=0.5;exitY=1;exitDx=0;exitDy=0;" edge="1" parent="1">
          <mxGeometry relative="1" as="geometry">
            <mxPoint x="802" y="-600" as="sourcePoint" />
            <mxPoint x="802" y="-600" as="targetPoint" />
          </mxGeometry>
        </mxCell>
        <mxCell id="GeNn5KQTI6vVDBgjTlha-52" value="상담 가능 시간을&lt;br&gt;&amp;nbsp;확인한다" style="ellipse;whiteSpace=wrap;html=1;" vertex="1" parent="1">
          <mxGeometry x="720" y="-595" width="120" height="40" as="geometry" />
        </mxCell>
        <mxCell id="GeNn5KQTI6vVDBgjTlha-53" style="edgeStyle=orthogonalEdgeStyle;rounded=0;orthogonalLoop=1;jettySize=auto;html=1;exitX=0.5;exitY=1;exitDx=0;exitDy=0;" edge="1" source="GeNn5KQTI6vVDBgjTlha-52" target="GeNn5KQTI6vVDBgjTlha-52" parent="1">
          <mxGeometry relative="1" as="geometry" />
        </mxCell>
        <mxCell id="GeNn5KQTI6vVDBgjTlha-55" style="edgeStyle=orthogonalEdgeStyle;rounded=0;orthogonalLoop=1;jettySize=auto;html=1;exitX=0.5;exitY=1;exitDx=0;exitDy=0;" edge="1" parent="1">
          <mxGeometry relative="1" as="geometry">
            <mxPoint x="802" y="-551" as="sourcePoint" />
            <mxPoint x="802" y="-551" as="targetPoint" />
          </mxGeometry>
        </mxCell>
        <mxCell id="GeNn5KQTI6vVDBgjTlha-58" style="edgeStyle=orthogonalEdgeStyle;rounded=0;orthogonalLoop=1;jettySize=auto;html=1;exitX=0.5;exitY=1;exitDx=0;exitDy=0;" edge="1" parent="1">
          <mxGeometry relative="1" as="geometry">
            <mxPoint x="780" y="-510" as="sourcePoint" />
            <mxPoint x="780" y="-510" as="targetPoint" />
          </mxGeometry>
        </mxCell>
        <mxCell id="GeNn5KQTI6vVDBgjTlha-60" style="edgeStyle=orthogonalEdgeStyle;rounded=0;orthogonalLoop=1;jettySize=auto;html=1;exitX=0.5;exitY=1;exitDx=0;exitDy=0;" edge="1" parent="1">
          <mxGeometry relative="1" as="geometry">
            <mxPoint x="784" y="-500" as="sourcePoint" />
            <mxPoint x="784" y="-500" as="targetPoint" />
          </mxGeometry>
        </mxCell>
        <mxCell id="GeNn5KQTI6vVDBgjTlha-62" value="상담 예약 현황을&lt;br&gt;&amp;nbsp;확인한다" style="ellipse;whiteSpace=wrap;html=1;" vertex="1" parent="1">
          <mxGeometry x="540" y="-440" width="120" height="40" as="geometry" />
        </mxCell>
        <mxCell id="GeNn5KQTI6vVDBgjTlha-63" style="edgeStyle=orthogonalEdgeStyle;rounded=0;orthogonalLoop=1;jettySize=auto;html=1;exitX=0.5;exitY=1;exitDx=0;exitDy=0;" edge="1" parent="1">
          <mxGeometry relative="1" as="geometry">
            <mxPoint x="602.12" y="-389" as="sourcePoint" />
            <mxPoint x="602.12" y="-389" as="targetPoint" />
          </mxGeometry>
        </mxCell>
        <mxCell id="GeNn5KQTI6vVDBgjTlha-64" value="" style="endArrow=none;html=1;rounded=0;entryX=0;entryY=0.5;entryDx=0;entryDy=0;exitX=1;exitY=0.5;exitDx=0;exitDy=0;" edge="1" parent="1" target="GeNn5KQTI6vVDBgjTlha-62" source="GeNn5KQTI6vVDBgjTlha-31">
          <mxGeometry width="50" height="50" relative="1" as="geometry">
            <mxPoint x="450" y="-520" as="sourcePoint" />
            <mxPoint x="777.75" y="-291.5" as="targetPoint" />
          </mxGeometry>
        </mxCell>
        <mxCell id="GeNn5KQTI6vVDBgjTlha-65" style="edgeStyle=orthogonalEdgeStyle;rounded=0;orthogonalLoop=1;jettySize=auto;html=1;exitX=0.5;exitY=1;exitDx=0;exitDy=0;" edge="1" parent="1">
          <mxGeometry relative="1" as="geometry">
            <mxPoint x="606.12" y="-390" as="sourcePoint" />
            <mxPoint x="606.12" y="-390" as="targetPoint" />
          </mxGeometry>
        </mxCell>
        <mxCell id="GeNn5KQTI6vVDBgjTlha-68" value="" style="endArrow=classic;html=1;rounded=0;entryX=1;entryY=0.5;entryDx=0;entryDy=0;exitX=0;exitY=0.5;exitDx=0;exitDy=0;" edge="1" parent="1" source="GeNn5KQTI6vVDBgjTlha-48" target="GeNn5KQTI6vVDBgjTlha-36">
          <mxGeometry width="50" height="50" relative="1" as="geometry">
            <mxPoint x="500" y="-410" as="sourcePoint" />
            <mxPoint x="550" y="-460" as="targetPoint" />
          </mxGeometry>
        </mxCell>
        <mxCell id="GeNn5KQTI6vVDBgjTlha-69" value="" style="endArrow=classic;html=1;rounded=0;entryX=1;entryY=0.5;entryDx=0;entryDy=0;exitX=0;exitY=0.5;exitDx=0;exitDy=0;" edge="1" parent="1" source="GeNn5KQTI6vVDBgjTlha-52" target="GeNn5KQTI6vVDBgjTlha-36">
          <mxGeometry width="50" height="50" relative="1" as="geometry">
            <mxPoint x="730" y="-609" as="sourcePoint" />
            <mxPoint x="670" y="-565" as="targetPoint" />
          </mxGeometry>
        </mxCell>
        <mxCell id="GeNn5KQTI6vVDBgjTlha-81" style="edgeStyle=orthogonalEdgeStyle;rounded=0;orthogonalLoop=1;jettySize=auto;html=1;exitX=0.5;exitY=1;exitDx=0;exitDy=0;" edge="1" parent="1">
          <mxGeometry relative="1" as="geometry">
            <mxPoint x="780" y="-549" as="sourcePoint" />
            <mxPoint x="780" y="-549" as="targetPoint" />
          </mxGeometry>
        </mxCell>
        <mxCell id="GeNn5KQTI6vVDBgjTlha-82" style="edgeStyle=orthogonalEdgeStyle;rounded=0;orthogonalLoop=1;jettySize=auto;html=1;exitX=0.5;exitY=1;exitDx=0;exitDy=0;" edge="1" parent="1">
          <mxGeometry relative="1" as="geometry">
            <mxPoint x="802" y="-550" as="sourcePoint" />
            <mxPoint x="802" y="-550" as="targetPoint" />
          </mxGeometry>
        </mxCell>
        <mxCell id="GeNn5KQTI6vVDBgjTlha-83" value="시간대를 선택한다" style="ellipse;whiteSpace=wrap;html=1;" vertex="1" parent="1">
          <mxGeometry x="720" y="-545" width="120" height="40" as="geometry" />
        </mxCell>
        <mxCell id="GeNn5KQTI6vVDBgjTlha-84" style="edgeStyle=orthogonalEdgeStyle;rounded=0;orthogonalLoop=1;jettySize=auto;html=1;exitX=0.5;exitY=1;exitDx=0;exitDy=0;" edge="1" source="GeNn5KQTI6vVDBgjTlha-83" target="GeNn5KQTI6vVDBgjTlha-83" parent="1">
          <mxGeometry relative="1" as="geometry" />
        </mxCell>
        <mxCell id="GeNn5KQTI6vVDBgjTlha-85" style="edgeStyle=orthogonalEdgeStyle;rounded=0;orthogonalLoop=1;jettySize=auto;html=1;exitX=0.5;exitY=1;exitDx=0;exitDy=0;" edge="1" parent="1">
          <mxGeometry relative="1" as="geometry">
            <mxPoint x="802" y="-501" as="sourcePoint" />
            <mxPoint x="802" y="-501" as="targetPoint" />
          </mxGeometry>
        </mxCell>
        <mxCell id="GeNn5KQTI6vVDBgjTlha-86" style="edgeStyle=orthogonalEdgeStyle;rounded=0;orthogonalLoop=1;jettySize=auto;html=1;exitX=0.5;exitY=1;exitDx=0;exitDy=0;" edge="1" parent="1">
          <mxGeometry relative="1" as="geometry">
            <mxPoint x="780" y="-460" as="sourcePoint" />
            <mxPoint x="780" y="-460" as="targetPoint" />
          </mxGeometry>
        </mxCell>
        <mxCell id="GeNn5KQTI6vVDBgjTlha-87" value="" style="endArrow=classic;html=1;rounded=0;entryX=1;entryY=0.5;entryDx=0;entryDy=0;exitX=0;exitY=0.5;exitDx=0;exitDy=0;" edge="1" source="GeNn5KQTI6vVDBgjTlha-83" parent="1">
          <mxGeometry width="50" height="50" relative="1" as="geometry">
            <mxPoint x="730" y="-559" as="sourcePoint" />
            <mxPoint x="660" y="-525" as="targetPoint" />
          </mxGeometry>
        </mxCell>
        <mxCell id="GeNn5KQTI6vVDBgjTlha-88" value="회원가입을 한다" style="ellipse;whiteSpace=wrap;html=1;" vertex="1" parent="1">
          <mxGeometry x="325.87" y="-319" width="120" height="40" as="geometry" />
        </mxCell>
        <mxCell id="GeNn5KQTI6vVDBgjTlha-89" style="edgeStyle=orthogonalEdgeStyle;rounded=0;orthogonalLoop=1;jettySize=auto;html=1;exitX=0.5;exitY=1;exitDx=0;exitDy=0;" edge="1" source="GeNn5KQTI6vVDBgjTlha-88" target="GeNn5KQTI6vVDBgjTlha-88" parent="1">
          <mxGeometry relative="1" as="geometry" />
        </mxCell>
        <mxCell id="GeNn5KQTI6vVDBgjTlha-90" value="" style="endArrow=none;html=1;rounded=0;entryX=0;entryY=0.5;entryDx=0;entryDy=0;" edge="1" target="GeNn5KQTI6vVDBgjTlha-88" parent="1">
          <mxGeometry width="50" height="50" relative="1" as="geometry">
            <mxPoint x="242.12" y="-319" as="sourcePoint" />
            <mxPoint x="567.37" y="-238.5" as="targetPoint" />
          </mxGeometry>
        </mxCell>
        <mxCell id="GeNn5KQTI6vVDBgjTlha-91" style="edgeStyle=orthogonalEdgeStyle;rounded=0;orthogonalLoop=1;jettySize=auto;html=1;exitX=0.5;exitY=1;exitDx=0;exitDy=0;" edge="1" parent="1">
          <mxGeometry relative="1" as="geometry">
            <mxPoint x="401.37" y="-354" as="sourcePoint" />
            <mxPoint x="401.37" y="-354" as="targetPoint" />
          </mxGeometry>
        </mxCell>
        <mxCell id="GeNn5KQTI6vVDBgjTlha-92" style="edgeStyle=orthogonalEdgeStyle;rounded=0;orthogonalLoop=1;jettySize=auto;html=1;exitX=0.5;exitY=1;exitDx=0;exitDy=0;" edge="1" parent="1">
          <mxGeometry relative="1" as="geometry">
            <mxPoint x="564.37" y="-377" as="sourcePoint" />
            <mxPoint x="564.37" y="-377" as="targetPoint" />
          </mxGeometry>
        </mxCell>
        <mxCell id="GeNn5KQTI6vVDBgjTlha-93" style="edgeStyle=orthogonalEdgeStyle;rounded=0;orthogonalLoop=1;jettySize=auto;html=1;exitX=0.5;exitY=1;exitDx=0;exitDy=0;" edge="1" parent="1">
          <mxGeometry relative="1" as="geometry">
            <mxPoint x="586.37" y="-373" as="sourcePoint" />
            <mxPoint x="586.37" y="-373" as="targetPoint" />
          </mxGeometry>
        </mxCell>
        <mxCell id="GeNn5KQTI6vVDBgjTlha-94" style="edgeStyle=orthogonalEdgeStyle;rounded=0;orthogonalLoop=1;jettySize=auto;html=1;exitX=0.5;exitY=1;exitDx=0;exitDy=0;" edge="1" parent="1">
          <mxGeometry relative="1" as="geometry">
            <mxPoint x="564.37" y="-332" as="sourcePoint" />
            <mxPoint x="564.37" y="-332" as="targetPoint" />
          </mxGeometry>
        </mxCell>
        <mxCell id="GeNn5KQTI6vVDBgjTlha-95" style="edgeStyle=orthogonalEdgeStyle;rounded=0;orthogonalLoop=1;jettySize=auto;html=1;exitX=0.5;exitY=1;exitDx=0;exitDy=0;" edge="1" parent="1">
          <mxGeometry relative="1" as="geometry">
            <mxPoint x="568.37" y="-322" as="sourcePoint" />
            <mxPoint x="568.37" y="-322" as="targetPoint" />
          </mxGeometry>
        </mxCell>
        <mxCell id="GeNn5KQTI6vVDBgjTlha-96" style="edgeStyle=orthogonalEdgeStyle;rounded=0;orthogonalLoop=1;jettySize=auto;html=1;exitX=0.5;exitY=1;exitDx=0;exitDy=0;" edge="1" parent="1">
          <mxGeometry relative="1" as="geometry">
            <mxPoint x="564.37" y="-371" as="sourcePoint" />
            <mxPoint x="564.37" y="-371" as="targetPoint" />
          </mxGeometry>
        </mxCell>
        <mxCell id="GeNn5KQTI6vVDBgjTlha-97" style="edgeStyle=orthogonalEdgeStyle;rounded=0;orthogonalLoop=1;jettySize=auto;html=1;exitX=0.5;exitY=1;exitDx=0;exitDy=0;" edge="1" parent="1">
          <mxGeometry relative="1" as="geometry">
            <mxPoint x="586.37" y="-372" as="sourcePoint" />
            <mxPoint x="586.37" y="-372" as="targetPoint" />
          </mxGeometry>
        </mxCell>
        <mxCell id="GeNn5KQTI6vVDBgjTlha-98" value="시간대를 선택한다" style="ellipse;whiteSpace=wrap;html=1;" vertex="1" parent="1">
          <mxGeometry x="504.75" y="-369" width="120" height="40" as="geometry" />
        </mxCell>
        <mxCell id="GeNn5KQTI6vVDBgjTlha-99" style="edgeStyle=orthogonalEdgeStyle;rounded=0;orthogonalLoop=1;jettySize=auto;html=1;exitX=0.5;exitY=1;exitDx=0;exitDy=0;" edge="1" source="GeNn5KQTI6vVDBgjTlha-98" target="GeNn5KQTI6vVDBgjTlha-98" parent="1">
          <mxGeometry relative="1" as="geometry" />
        </mxCell>
        <mxCell id="GeNn5KQTI6vVDBgjTlha-100" style="edgeStyle=orthogonalEdgeStyle;rounded=0;orthogonalLoop=1;jettySize=auto;html=1;exitX=0.5;exitY=1;exitDx=0;exitDy=0;" edge="1" parent="1">
          <mxGeometry relative="1" as="geometry">
            <mxPoint x="586.37" y="-323" as="sourcePoint" />
            <mxPoint x="586.37" y="-323" as="targetPoint" />
          </mxGeometry>
        </mxCell>
        <mxCell id="GeNn5KQTI6vVDBgjTlha-101" value="" style="endArrow=classic;html=1;rounded=0;exitX=0;exitY=0.5;exitDx=0;exitDy=0;" edge="1" source="GeNn5KQTI6vVDBgjTlha-98" parent="1">
          <mxGeometry width="50" height="50" relative="1" as="geometry">
            <mxPoint x="514.37" y="-381" as="sourcePoint" />
            <mxPoint x="444.12" y="-349" as="targetPoint" />
          </mxGeometry>
        </mxCell>
        <mxCell id="GeNn5KQTI6vVDBgjTlha-106" value="로그인 한다" style="ellipse;whiteSpace=wrap;html=1;" vertex="1" parent="1">
          <mxGeometry x="323.5" y="-95" width="120" height="40" as="geometry" />
        </mxCell>
        <mxCell id="GeNn5KQTI6vVDBgjTlha-107" style="edgeStyle=orthogonalEdgeStyle;rounded=0;orthogonalLoop=1;jettySize=auto;html=1;exitX=0.5;exitY=1;exitDx=0;exitDy=0;" edge="1" source="GeNn5KQTI6vVDBgjTlha-106" target="GeNn5KQTI6vVDBgjTlha-106" parent="1">
          <mxGeometry relative="1" as="geometry" />
        </mxCell>
        <mxCell id="GeNn5KQTI6vVDBgjTlha-108" value="" style="endArrow=none;html=1;rounded=0;entryX=0;entryY=0.5;entryDx=0;entryDy=0;" edge="1" target="GeNn5KQTI6vVDBgjTlha-106" parent="1">
          <mxGeometry width="50" height="50" relative="1" as="geometry">
            <mxPoint x="260.75" y="-76" as="sourcePoint" />
            <mxPoint x="586.25" y="-15.5" as="targetPoint" />
          </mxGeometry>
        </mxCell>
        <mxCell id="GeNn5KQTI6vVDBgjTlha-109" style="edgeStyle=orthogonalEdgeStyle;rounded=0;orthogonalLoop=1;jettySize=auto;html=1;exitX=0.5;exitY=1;exitDx=0;exitDy=0;" edge="1" parent="1">
          <mxGeometry relative="1" as="geometry">
            <mxPoint x="412.5" y="-125" as="sourcePoint" />
            <mxPoint x="412.5" y="-125" as="targetPoint" />
          </mxGeometry>
        </mxCell>
        <mxCell id="GeNn5KQTI6vVDBgjTlha-143" value="상담 예약 확인한다" style="ellipse;whiteSpace=wrap;html=1;" vertex="1" parent="1">
          <mxGeometry x="510" y="-122.25" width="120" height="40" as="geometry" />
        </mxCell>
        <mxCell id="GeNn5KQTI6vVDBgjTlha-145" value="" style="endArrow=none;html=1;rounded=0;entryX=0;entryY=0.5;entryDx=0;entryDy=0;exitX=1;exitY=0.5;exitDx=0;exitDy=0;" edge="1" target="GeNn5KQTI6vVDBgjTlha-143" parent="1" source="GeNn5KQTI6vVDBgjTlha-106">
          <mxGeometry width="50" height="50" relative="1" as="geometry">
            <mxPoint x="460" y="-75" as="sourcePoint" />
            <mxPoint x="807.5" y="4.75" as="targetPoint" />
          </mxGeometry>
        </mxCell>
        <mxCell id="GeNn5KQTI6vVDBgjTlha-146" style="edgeStyle=orthogonalEdgeStyle;rounded=0;orthogonalLoop=1;jettySize=auto;html=1;exitX=0.5;exitY=1;exitDx=0;exitDy=0;" edge="1" parent="1">
          <mxGeometry relative="1" as="geometry">
            <mxPoint x="663.75" y="-104.75" as="sourcePoint" />
            <mxPoint x="663.75" y="-104.75" as="targetPoint" />
          </mxGeometry>
        </mxCell>
        <mxCell id="GeNn5KQTI6vVDBgjTlha-155" value="수락한다/거절한다" style="ellipse;whiteSpace=wrap;html=1;" vertex="1" parent="1">
          <mxGeometry x="700" y="-122.25" width="120" height="40" as="geometry" />
        </mxCell>
        <mxCell id="GeNn5KQTI6vVDBgjTlha-156" style="edgeStyle=orthogonalEdgeStyle;rounded=0;orthogonalLoop=1;jettySize=auto;html=1;exitX=0.5;exitY=1;exitDx=0;exitDy=0;" edge="1" source="GeNn5KQTI6vVDBgjTlha-155" target="GeNn5KQTI6vVDBgjTlha-155" parent="1">
          <mxGeometry relative="1" as="geometry" />
        </mxCell>
        <mxCell id="GeNn5KQTI6vVDBgjTlha-167" value="" style="endArrow=classic;html=1;rounded=0;entryX=1;entryY=0.5;entryDx=0;entryDy=0;exitX=0;exitY=0.5;exitDx=0;exitDy=0;" edge="1" source="GeNn5KQTI6vVDBgjTlha-155" target="GeNn5KQTI6vVDBgjTlha-143" parent="1">
          <mxGeometry width="50" height="50" relative="1" as="geometry">
            <mxPoint x="554" y="70" as="sourcePoint" />
            <mxPoint x="604" y="20" as="targetPoint" />
          </mxGeometry>
        </mxCell>
        <mxCell id="GeNn5KQTI6vVDBgjTlha-181" value="상담 가능 시간을&lt;br&gt;관리한다" style="ellipse;whiteSpace=wrap;html=1;" vertex="1" parent="1">
          <mxGeometry x="510" y="-65" width="120" height="40" as="geometry" />
        </mxCell>
        <mxCell id="GeNn5KQTI6vVDBgjTlha-182" value="" style="endArrow=none;html=1;rounded=0;entryX=0;entryY=0.5;entryDx=0;entryDy=0;exitX=1;exitY=0.5;exitDx=0;exitDy=0;" edge="1" parent="1" source="GeNn5KQTI6vVDBgjTlha-106" target="GeNn5KQTI6vVDBgjTlha-181">
          <mxGeometry width="50" height="50" relative="1" as="geometry">
            <mxPoint x="453.5" y="-65" as="sourcePoint" />
            <mxPoint x="490" y="-92.25" as="targetPoint" />
          </mxGeometry>
        </mxCell>
        <mxCell id="GeNn5KQTI6vVDBgjTlha-183" value="로그인 한다" style="ellipse;whiteSpace=wrap;html=1;" vertex="1" parent="1">
          <mxGeometry x="323.5" y="100" width="120" height="40" as="geometry" />
        </mxCell>
        <mxCell id="GeNn5KQTI6vVDBgjTlha-184" style="edgeStyle=orthogonalEdgeStyle;rounded=0;orthogonalLoop=1;jettySize=auto;html=1;exitX=0.5;exitY=1;exitDx=0;exitDy=0;" edge="1" source="GeNn5KQTI6vVDBgjTlha-183" target="GeNn5KQTI6vVDBgjTlha-183" parent="1">
          <mxGeometry relative="1" as="geometry" />
        </mxCell>
        <mxCell id="GeNn5KQTI6vVDBgjTlha-185" value="" style="endArrow=none;html=1;rounded=0;entryX=0;entryY=0.5;entryDx=0;entryDy=0;" edge="1" target="GeNn5KQTI6vVDBgjTlha-183" parent="1">
          <mxGeometry width="50" height="50" relative="1" as="geometry">
            <mxPoint x="260.75" y="119" as="sourcePoint" />
            <mxPoint x="586.25" y="179.5" as="targetPoint" />
          </mxGeometry>
        </mxCell>
        <mxCell id="GeNn5KQTI6vVDBgjTlha-186" style="edgeStyle=orthogonalEdgeStyle;rounded=0;orthogonalLoop=1;jettySize=auto;html=1;exitX=0.5;exitY=1;exitDx=0;exitDy=0;" edge="1" parent="1">
          <mxGeometry relative="1" as="geometry">
            <mxPoint x="412.5" y="70" as="sourcePoint" />
            <mxPoint x="412.5" y="70" as="targetPoint" />
          </mxGeometry>
        </mxCell>
        <mxCell id="GeNn5KQTI6vVDBgjTlha-187" style="edgeStyle=orthogonalEdgeStyle;rounded=0;orthogonalLoop=1;jettySize=auto;html=1;exitX=0.5;exitY=1;exitDx=0;exitDy=0;" edge="1" parent="1">
          <mxGeometry relative="1" as="geometry">
            <mxPoint x="412.5" y="20" as="sourcePoint" />
            <mxPoint x="412.5" y="20" as="targetPoint" />
          </mxGeometry>
        </mxCell>
        <mxCell id="GeNn5KQTI6vVDBgjTlha-188" value="공지사항을 관리한다" style="ellipse;whiteSpace=wrap;html=1;" vertex="1" parent="1">
          <mxGeometry x="510" y="40" width="120" height="40" as="geometry" />
        </mxCell>
        <mxCell id="GeNn5KQTI6vVDBgjTlha-189" value="" style="endArrow=none;html=1;rounded=0;entryX=0;entryY=0.5;entryDx=0;entryDy=0;exitX=1;exitY=0.5;exitDx=0;exitDy=0;" edge="1" target="GeNn5KQTI6vVDBgjTlha-188" parent="1" source="GeNn5KQTI6vVDBgjTlha-183">
          <mxGeometry width="50" height="50" relative="1" as="geometry">
            <mxPoint x="444.88" y="105" as="sourcePoint" />
            <mxPoint x="808.63" y="174.75" as="targetPoint" />
          </mxGeometry>
        </mxCell>
        <mxCell id="GeNn5KQTI6vVDBgjTlha-190" value="교수님을 관리한다" style="ellipse;whiteSpace=wrap;html=1;" vertex="1" parent="1">
          <mxGeometry x="510" y="160" width="120" height="40" as="geometry" />
        </mxCell>
        <mxCell id="GeNn5KQTI6vVDBgjTlha-191" value="" style="endArrow=none;html=1;rounded=0;entryX=0;entryY=0.5;entryDx=0;entryDy=0;exitX=1;exitY=0.5;exitDx=0;exitDy=0;" edge="1" target="GeNn5KQTI6vVDBgjTlha-190" parent="1" source="GeNn5KQTI6vVDBgjTlha-183">
          <mxGeometry width="50" height="50" relative="1" as="geometry">
            <mxPoint x="444.88" y="105" as="sourcePoint" />
            <mxPoint x="808.13" y="242" as="targetPoint" />
          </mxGeometry>
        </mxCell>
        <mxCell id="GeNn5KQTI6vVDBgjTlha-192" style="edgeStyle=orthogonalEdgeStyle;rounded=0;orthogonalLoop=1;jettySize=auto;html=1;exitX=0.5;exitY=1;exitDx=0;exitDy=0;" edge="1" parent="1">
          <mxGeometry relative="1" as="geometry">
            <mxPoint x="663.75" y="-47.5" as="sourcePoint" />
            <mxPoint x="663.75" y="-47.5" as="targetPoint" />
          </mxGeometry>
        </mxCell>
        <mxCell id="GeNn5KQTI6vVDBgjTlha-193" value="상담가능 시간을&lt;br&gt;수정한다" style="ellipse;whiteSpace=wrap;html=1;" vertex="1" parent="1">
          <mxGeometry x="700" y="-65" width="120" height="40" as="geometry" />
        </mxCell>
        <mxCell id="GeNn5KQTI6vVDBgjTlha-194" style="edgeStyle=orthogonalEdgeStyle;rounded=0;orthogonalLoop=1;jettySize=auto;html=1;exitX=0.5;exitY=1;exitDx=0;exitDy=0;" edge="1" parent="1">
          <mxGeometry relative="1" as="geometry">
            <mxPoint x="761.13" y="-7.75" as="sourcePoint" />
            <mxPoint x="761.13" y="-7.75" as="targetPoint" />
          </mxGeometry>
        </mxCell>
        <mxCell id="GeNn5KQTI6vVDBgjTlha-195" value="" style="endArrow=classic;html=1;rounded=0;entryX=1;entryY=0.5;entryDx=0;entryDy=0;exitX=0;exitY=0.5;exitDx=0;exitDy=0;" edge="1" source="GeNn5KQTI6vVDBgjTlha-193" parent="1">
          <mxGeometry width="50" height="50" relative="1" as="geometry">
            <mxPoint x="554" y="127.25" as="sourcePoint" />
            <mxPoint x="630" y="-45" as="targetPoint" />
          </mxGeometry>
        </mxCell>
        <mxCell id="GeNn5KQTI6vVDBgjTlha-196" style="edgeStyle=orthogonalEdgeStyle;rounded=0;orthogonalLoop=1;jettySize=auto;html=1;exitX=0.5;exitY=1;exitDx=0;exitDy=0;" edge="1" parent="1">
          <mxGeometry relative="1" as="geometry">
            <mxPoint x="664.88" y="77.5" as="sourcePoint" />
            <mxPoint x="664.88" y="77.5" as="targetPoint" />
          </mxGeometry>
        </mxCell>
        <mxCell id="GeNn5KQTI6vVDBgjTlha-197" value="공지사항을 &lt;br&gt;삭제한다" style="ellipse;whiteSpace=wrap;html=1;" vertex="1" parent="1">
          <mxGeometry x="701.13" y="60" width="120" height="40" as="geometry" />
        </mxCell>
        <mxCell id="GeNn5KQTI6vVDBgjTlha-198" style="edgeStyle=orthogonalEdgeStyle;rounded=0;orthogonalLoop=1;jettySize=auto;html=1;exitX=0.5;exitY=1;exitDx=0;exitDy=0;" edge="1" source="GeNn5KQTI6vVDBgjTlha-197" target="GeNn5KQTI6vVDBgjTlha-197" parent="1">
          <mxGeometry relative="1" as="geometry" />
        </mxCell>
        <mxCell id="GeNn5KQTI6vVDBgjTlha-199" value="" style="endArrow=classic;html=1;rounded=0;exitX=0;exitY=0.5;exitDx=0;exitDy=0;entryX=1;entryY=0.5;entryDx=0;entryDy=0;" edge="1" source="GeNn5KQTI6vVDBgjTlha-197" parent="1" target="GeNn5KQTI6vVDBgjTlha-188">
          <mxGeometry width="50" height="50" relative="1" as="geometry">
            <mxPoint x="555.13" y="252.25" as="sourcePoint" />
            <mxPoint x="631.13" y="80" as="targetPoint" />
          </mxGeometry>
        </mxCell>
        <mxCell id="GeNn5KQTI6vVDBgjTlha-200" style="edgeStyle=orthogonalEdgeStyle;rounded=0;orthogonalLoop=1;jettySize=auto;html=1;exitX=0.5;exitY=1;exitDx=0;exitDy=0;" edge="1" parent="1">
          <mxGeometry relative="1" as="geometry">
            <mxPoint x="664.88" y="127.5" as="sourcePoint" />
            <mxPoint x="664.88" y="127.5" as="targetPoint" />
          </mxGeometry>
        </mxCell>
        <mxCell id="GeNn5KQTI6vVDBgjTlha-201" value="교수님 정보를 &lt;br&gt;추가한다" style="ellipse;whiteSpace=wrap;html=1;" vertex="1" parent="1">
          <mxGeometry x="701.13" y="110" width="120" height="40" as="geometry" />
        </mxCell>
        <mxCell id="GeNn5KQTI6vVDBgjTlha-202" style="edgeStyle=orthogonalEdgeStyle;rounded=0;orthogonalLoop=1;jettySize=auto;html=1;exitX=0.5;exitY=1;exitDx=0;exitDy=0;" edge="1" source="GeNn5KQTI6vVDBgjTlha-201" target="GeNn5KQTI6vVDBgjTlha-201" parent="1">
          <mxGeometry relative="1" as="geometry" />
        </mxCell>
        <mxCell id="GeNn5KQTI6vVDBgjTlha-203" value="" style="endArrow=classic;html=1;rounded=0;entryX=1;entryY=0.5;entryDx=0;entryDy=0;exitX=0;exitY=0.5;exitDx=0;exitDy=0;" edge="1" source="GeNn5KQTI6vVDBgjTlha-201" parent="1" target="GeNn5KQTI6vVDBgjTlha-190">
          <mxGeometry width="50" height="50" relative="1" as="geometry">
            <mxPoint x="555.13" y="302.25" as="sourcePoint" />
            <mxPoint x="631.13" y="130" as="targetPoint" />
          </mxGeometry>
        </mxCell>
        <mxCell id="GeNn5KQTI6vVDBgjTlha-204" style="edgeStyle=orthogonalEdgeStyle;rounded=0;orthogonalLoop=1;jettySize=auto;html=1;exitX=0.5;exitY=1;exitDx=0;exitDy=0;" edge="1" parent="1">
          <mxGeometry relative="1" as="geometry">
            <mxPoint x="664.88" y="24.25" as="sourcePoint" />
            <mxPoint x="664.88" y="24.25" as="targetPoint" />
          </mxGeometry>
        </mxCell>
        <mxCell id="GeNn5KQTI6vVDBgjTlha-205" value="공지사항을&lt;br&gt;추가한다" style="ellipse;whiteSpace=wrap;html=1;" vertex="1" parent="1">
          <mxGeometry x="701.13" y="6.75" width="120" height="40" as="geometry" />
        </mxCell>
        <mxCell id="GeNn5KQTI6vVDBgjTlha-206" style="edgeStyle=orthogonalEdgeStyle;rounded=0;orthogonalLoop=1;jettySize=auto;html=1;exitX=0.5;exitY=1;exitDx=0;exitDy=0;" edge="1" source="GeNn5KQTI6vVDBgjTlha-205" target="GeNn5KQTI6vVDBgjTlha-205" parent="1">
          <mxGeometry relative="1" as="geometry" />
        </mxCell>
        <mxCell id="GeNn5KQTI6vVDBgjTlha-207" value="" style="endArrow=classic;html=1;rounded=0;entryX=1;entryY=0.5;entryDx=0;entryDy=0;exitX=0;exitY=0.5;exitDx=0;exitDy=0;" edge="1" source="GeNn5KQTI6vVDBgjTlha-205" parent="1" target="GeNn5KQTI6vVDBgjTlha-188">
          <mxGeometry width="50" height="50" relative="1" as="geometry">
            <mxPoint x="555.13" y="199" as="sourcePoint" />
            <mxPoint x="631.13" y="26.75" as="targetPoint" />
          </mxGeometry>
        </mxCell>
        <mxCell id="GeNn5KQTI6vVDBgjTlha-208" style="edgeStyle=orthogonalEdgeStyle;rounded=0;orthogonalLoop=1;jettySize=auto;html=1;exitX=0.5;exitY=1;exitDx=0;exitDy=0;" edge="1" parent="1">
          <mxGeometry relative="1" as="geometry">
            <mxPoint x="771.1300000000001" y="110" as="sourcePoint" />
            <mxPoint x="771.1300000000001" y="110" as="targetPoint" />
          </mxGeometry>
        </mxCell>
        <mxCell id="GeNn5KQTI6vVDBgjTlha-209" style="edgeStyle=orthogonalEdgeStyle;rounded=0;orthogonalLoop=1;jettySize=auto;html=1;exitX=0.5;exitY=1;exitDx=0;exitDy=0;" edge="1" parent="1">
          <mxGeometry relative="1" as="geometry">
            <mxPoint x="674.8800000000001" y="137.5" as="sourcePoint" />
            <mxPoint x="674.8800000000001" y="137.5" as="targetPoint" />
          </mxGeometry>
        </mxCell>
        <mxCell id="GeNn5KQTI6vVDBgjTlha-210" value="교수님 정보를 &lt;br&gt;수정한다" style="ellipse;whiteSpace=wrap;html=1;" vertex="1" parent="1">
          <mxGeometry x="700" y="160" width="120" height="40" as="geometry" />
        </mxCell>
        <mxCell id="GeNn5KQTI6vVDBgjTlha-211" style="edgeStyle=orthogonalEdgeStyle;rounded=0;orthogonalLoop=1;jettySize=auto;html=1;exitX=0.5;exitY=1;exitDx=0;exitDy=0;" edge="1" source="GeNn5KQTI6vVDBgjTlha-210" target="GeNn5KQTI6vVDBgjTlha-210" parent="1">
          <mxGeometry relative="1" as="geometry" />
        </mxCell>
        <mxCell id="GeNn5KQTI6vVDBgjTlha-212" value="" style="endArrow=classic;html=1;rounded=0;entryX=1;entryY=0.5;entryDx=0;entryDy=0;exitX=0;exitY=0.5;exitDx=0;exitDy=0;" edge="1" source="GeNn5KQTI6vVDBgjTlha-210" parent="1" target="GeNn5KQTI6vVDBgjTlha-190">
          <mxGeometry width="50" height="50" relative="1" as="geometry">
            <mxPoint x="565.13" y="312.25" as="sourcePoint" />
            <mxPoint x="639.5" y="164.5" as="targetPoint" />
          </mxGeometry>
        </mxCell>
        <mxCell id="GeNn5KQTI6vVDBgjTlha-213" style="edgeStyle=orthogonalEdgeStyle;rounded=0;orthogonalLoop=1;jettySize=auto;html=1;exitX=0.5;exitY=1;exitDx=0;exitDy=0;" edge="1" parent="1">
          <mxGeometry relative="1" as="geometry">
            <mxPoint x="761.6300000000001" y="175.5" as="sourcePoint" />
            <mxPoint x="761.6300000000001" y="175.5" as="targetPoint" />
          </mxGeometry>
        </mxCell>
        <mxCell id="GeNn5KQTI6vVDBgjTlha-214" style="edgeStyle=orthogonalEdgeStyle;rounded=0;orthogonalLoop=1;jettySize=auto;html=1;exitX=0.5;exitY=1;exitDx=0;exitDy=0;" edge="1" parent="1">
          <mxGeometry relative="1" as="geometry">
            <mxPoint x="665.3800000000001" y="203" as="sourcePoint" />
            <mxPoint x="665.3800000000001" y="203" as="targetPoint" />
          </mxGeometry>
        </mxCell>
        <mxCell id="GeNn5KQTI6vVDBgjTlha-215" value="교수님 정보를&amp;nbsp;&lt;br&gt;삭제한다" style="ellipse;whiteSpace=wrap;html=1;" vertex="1" parent="1">
          <mxGeometry x="700" y="220" width="120" height="40" as="geometry" />
        </mxCell>
        <mxCell id="GeNn5KQTI6vVDBgjTlha-216" style="edgeStyle=orthogonalEdgeStyle;rounded=0;orthogonalLoop=1;jettySize=auto;html=1;exitX=0.5;exitY=1;exitDx=0;exitDy=0;" edge="1" source="GeNn5KQTI6vVDBgjTlha-215" target="GeNn5KQTI6vVDBgjTlha-215" parent="1">
          <mxGeometry relative="1" as="geometry" />
        </mxCell>
        <mxCell id="GeNn5KQTI6vVDBgjTlha-218" value="" style="endArrow=classic;html=1;rounded=0;entryX=1;entryY=0.5;entryDx=0;entryDy=0;exitX=0;exitY=0.5;exitDx=0;exitDy=0;" edge="1" parent="1" source="GeNn5KQTI6vVDBgjTlha-215" target="GeNn5KQTI6vVDBgjTlha-190">
          <mxGeometry width="50" height="50" relative="1" as="geometry">
            <mxPoint x="710" y="190" as="sourcePoint" />
            <mxPoint x="639.5" y="164.5" as="targetPoint" />
          </mxGeometry>
        </mxCell>
      </root>
    </mxGraphModel>
  </diagram>
</mxfile>
